<svg width="24" height="24" viewBox="0 0 24 24" fill="none" xmlns="http://www.w3.org/2000/svg">
<path d="M17.3021 15.2954H16.2488L15.8754 14.9354C17.4754 13.0688 18.3021 10.5221 17.8488 7.81543C17.2221 4.10876 14.1287 1.14876 10.3954 0.69543C4.75542 0.00209719 0.00874996 4.74876 0.702083 10.3888C1.15542 14.1221 4.11542 17.2154 7.82208 17.8421C10.5288 18.2954 13.0754 17.4688 14.9421 15.8688L15.3021 16.2421V17.2954L20.9688 22.9621C21.5154 23.5088 22.4088 23.5088 22.9554 22.9621C23.5021 22.4154 23.5021 21.5221 22.9554 20.9754L17.3021 15.2954ZM9.30208 15.2954C5.98208 15.2954 3.30208 12.6154 3.30208 9.29543C3.30208 5.97543 5.98208 3.29543 9.30208 3.29543C12.6221 3.29543 15.3021 5.97543 15.3021 9.29543C15.3021 12.6154 12.6221 15.2954 9.30208 15.2954Z" fill="#FAFAFA"/>
</svg>
